<?xml version="1.0" standalone="no"?>
<!DOCTYPE svg PUBLIC "-//W3C//DTD SVG 20010904//EN"
 "http://www.w3.org/TR/2001/REC-SVG-20010904/DTD/svg10.dtd">
<svg version="1.0" xmlns="http://www.w3.org/2000/svg"
 width="1200.000000pt" height="1200.000000pt" viewBox="0 0 1200.000000 1200.000000"
 preserveAspectRatio="xMidYMid meet">

<g transform="translate(0.000000,1200.000000) scale(0.100000,-0.100000)"
fill="#ffffff" stroke="none">
<path d="M5765 10693 c-195 -13 -467 -63 -653 -119 -473 -144 -880 -399 -1263
-790 -480 -492 -747 -1036 -835 -1705 -14 -103 -17 -256 -21 -896 l-5 -771
-176 -4 c-161 -4 -184 -6 -252 -31 -175 -63 -325 -212 -392 -390 l-23 -62 -3
-2054 c-3 -2278 -7 -2103 64 -2249 42 -85 137 -192 222 -248 31 -21 95 -52
142 -68 l85 -31 3335 0 3335 0 70 22 c163 52 312 178 385 325 75 154 71 -6 68
2256 l-3 2027 -26 72 c-37 101 -71 154 -149 237 -75 79 -146 126 -248 164 -60
23 -87 26 -247 31 l-180 6 -6 800 c-6 895 -7 903 -85 1225 -96 392 -289 776
-560 1115 -112 140 -357 385 -499 499 -472 378 -1001 589 -1599 636 -120 9
-366 11 -481 3z m577 -1311 c346 -73 651 -245 900 -511 208 -221 340 -456 409
-728 53 -209 54 -232 54 -1008 l0 -720 -1712 -3 -1713 -2 0 708 c0 435 4 740
11 792 44 355 182 662 416 922 283 316 620 503 1017 563 136 21 490 13 618
-13z m-152 -3847 c245 -55 485 -252 586 -481 91 -206 96 -470 13 -671 -77
-183 -194 -314 -392 -438 -14 -9 12 -103 218 -785 162 -537 235 -790 235 -823
0 -85 -66 -173 -147 -197 -26 -8 -251 -10 -734 -8 l-696 3 -42 29 c-49 34 -91
100 -98 154 -4 30 43 197 225 803 127 420 233 775 237 789 5 22 -1 30 -60 68
-178 117 -304 283 -367 482 -20 67 -23 94 -23 245 0 166 1 172 33 265 44 126
99 216 191 313 120 126 236 199 384 242 125 36 300 40 437 10z"/>
</g>
</svg>
