<?xml version="1.0" standalone="no"?>
<!DOCTYPE svg PUBLIC "-//W3C//DTD SVG 20010904//EN"
 "http://www.w3.org/TR/2001/REC-SVG-20010904/DTD/svg10.dtd">
<svg version="1.0" xmlns="http://www.w3.org/2000/svg"
 width="512.000000pt" height="512.000000pt" viewBox="0 0 512.000000 512.000000"
 preserveAspectRatio="xMidYMid meet">

<g transform="translate(0.000000,512.000000) scale(0.100000,-0.100000)"
fill="#FFFFFF" stroke="none">
<path d="M2018 4869 c-277 -138 -511 -258 -522 -267 -10 -10 -27 -34 -37 -54
-18 -35 -19 -68 -19 -627 0 -393 4 -599 11 -618 6 -15 20 -39 32 -52 12 -13
251 -138 530 -277 405 -203 516 -254 547 -254 31 0 142 51 548 254 533 266
555 280 567 349 3 18 5 298 3 623 l-3 591 -28 37 c-25 32 -99 72 -538 292
-407 203 -518 254 -549 254 -31 0 -141 -51 -542 -251z m837 -236 c162 -82 295
-150 295 -153 0 -3 -133 -71 -295 -153 l-295 -147 -295 147 c-162 82 -295 150
-295 153 0 4 574 296 587 299 2 1 136 -65 298 -146z m-455 -1113 l0 -380 -320
160 -320 160 0 380 0 380 320 -160 320 -160 0 -380z m960 320 l0 -380 -320
-160 -320 -160 0 380 0 380 318 159 c174 88 318 160 320 160 1 1 2 -170 2
-379z"/>
<path d="M4514 2415 c-126 -27 -170 -59 -419 -304 -209 -206 -238 -230 -313
-269 -46 -23 -90 -42 -97 -42 -11 0 -13 16 -8 83 16 234 -134 442 -362 502
-90 23 -1719 23 -1833 -1 -161 -33 -308 -116 -416 -236 -76 -84 -1019 -1634
-1048 -1723 -24 -72 -20 -166 10 -235 23 -55 106 -134 170 -163 47 -22 49 -22
754 -22 696 0 707 0 735 20 15 12 93 118 173 237 l145 217 810 3 810 3 70 23
c254 85 528 284 891 646 243 243 422 446 471 534 80 143 83 305 7 455 -36 71
-152 188 -225 226 -61 33 -168 61 -229 60 -19 0 -62 -7 -96 -14z m177 -331
c41 -20 97 -90 105 -128 13 -73 -1 -99 -129 -249 -67 -78 -203 -223 -302 -322
-274 -273 -475 -433 -664 -528 l-104 -52 -868 -5 c-854 -5 -868 -5 -896 -25
-15 -12 -93 -118 -173 -238 l-145 -216 -597 -1 c-329 0 -598 3 -598 6 0 3 213
358 472 787 357 589 486 794 525 834 35 36 78 66 130 91 l78 37 867 0 c860 0
867 0 894 -21 53 -39 69 -71 69 -134 0 -63 -16 -95 -69 -134 -27 -20 -43 -21
-486 -26 -443 -5 -459 -6 -486 -26 -53 -39 -69 -71 -69 -134 0 -63 16 -95 69
-134 27 -21 40 -21 604 -24 620 -4 694 0 837 45 95 30 219 90 290 140 27 20
147 132 265 248 179 177 222 214 255 222 44 11 87 7 126 -13z"/>
</g>
</svg>
